<svg width="197" height="36" viewBox="0 0 197 36" fill="none" xmlns="http://www.w3.org/2000/svg">
<path d="M16.8991 26.8448V31.6029C16.9101 32.1639 16.8042 32.7211 16.5881 33.239C16.372 33.7569 16.0505 34.2241 15.6439 34.6109C15.2472 35.0093 14.7741 35.3234 14.253 35.5344C13.7318 35.7453 13.1734 35.8489 12.6113 35.8387H7.90794L0.117286 35.9973C0.0133738 35.9973 -0.022175 35.9781 0.0133738 35.9426C0.119646 35.8628 0.233171 35.7933 0.352455 35.7347C0.535941 35.6379 0.68992 35.4934 0.798182 35.3164C0.910331 35.1085 0.964187 34.8742 0.95405 34.6382V16.3388L1.00601 2.29973C1.03815 1.82777 0.943752 1.35577 0.732553 0.932473C0.549129 0.64251 0.32435 0.380882 0.0653298 0.155868C0.0631011 0.127731 0.066552 0.0994336 0.0754775 0.0726572C0.0844029 0.0458808 0.0986207 0.0211721 0.117286 0L0.169242 0C0.916782 0.0713401 1.65203 0.238609 2.35686 0.497683C3.20016 0.774519 3.98331 1.20878 4.6648 1.77744C5.17206 2.13904 5.58459 2.6177 5.86736 3.17278C6.15014 3.72786 6.29481 4.34297 6.2891 4.96589L6.34106 33.0139C6.34536 33.1079 6.32756 33.2015 6.2891 33.2874L6.18519 33.4979C6.18282 33.5121 6.18386 33.5266 6.18824 33.5403C6.19263 33.554 6.20022 33.5665 6.21038 33.5766C6.22055 33.5868 6.233 33.5944 6.24669 33.5988C6.26038 33.6032 6.27492 33.6042 6.2891 33.6018C6.53248 33.6018 7.18603 33.6018 8.24976 33.6292C8.85041 33.6587 9.45233 33.6496 10.0518 33.6018C10.2907 33.59 10.523 33.5194 10.7281 33.3963C10.9332 33.2732 11.1048 33.1015 11.2277 32.8963C11.4555 32.4971 11.5695 31.8089 11.5695 30.8318V24.1267C11.5928 23.6979 11.5209 23.2693 11.3589 22.8716C11.2521 22.6421 11.11 22.4308 10.9378 22.2453L10.6643 21.9719C10.5932 21.9035 10.6288 21.868 10.7683 21.868C11.5102 21.9357 12.2396 22.1031 12.9367 22.3657C13.7588 22.6441 14.5279 23.0592 15.2119 23.5935C16.3367 24.5414 16.8991 25.6252 16.8991 26.8448Z" fill="white"/>
<path d="M10.4948 9.14972V4.39164C10.485 3.83043 10.5922 3.27334 10.8098 2.7559C11.0273 2.23846 11.3503 1.77204 11.7581 1.3864C12.1537 0.988649 12.6254 0.674688 13.145 0.463267C13.6647 0.251845 14.2216 0.147298 14.7825 0.155868H19.4859L27.2765 0C27.3804 0 27.416 0.0191417 27.3804 0.0519559C27.2745 0.136115 27.161 0.210264 27.0414 0.273452C26.8579 0.370307 26.7039 0.514839 26.5956 0.691834C26.4837 0.898798 26.4298 1.13218 26.4398 1.36726V19.6558L26.3878 33.6921C26.3579 34.1639 26.4522 34.6353 26.6613 35.0593C26.8493 35.3515 27.0786 35.6149 27.3422 35.8414C27.3446 35.87 27.3413 35.8987 27.3323 35.926C27.3234 35.9532 27.3091 35.9784 27.2902 36H27.2382C26.4906 35.929 25.7554 35.7617 25.0506 35.5023C24.2107 35.2235 23.4306 34.7893 22.7509 34.2226C22.2437 33.8604 21.8315 33.3812 21.5492 32.8256C21.2669 32.27 21.1229 31.6545 21.1293 31.0314L21.0555 2.98063C21.0499 2.88658 21.0677 2.79262 21.1074 2.70718C21.143 2.63608 21.1785 2.56772 21.2114 2.49935C21.2442 2.43099 21.1785 2.39271 21.1074 2.39271C20.8632 2.39271 20.2096 2.3845 19.1468 2.3681C18.5462 2.33842 17.9443 2.34664 17.3447 2.39271C17.1054 2.40561 16.8729 2.4769 16.6674 2.60036C16.462 2.72381 16.2899 2.89568 16.1662 3.10095C15.9419 3.50019 15.8271 4.19476 15.8271 5.16551V11.8678C15.8032 12.2975 15.8751 12.7272 16.0376 13.1257C16.1437 13.3558 16.2848 13.5679 16.456 13.7547L16.7295 14.0144C16.8006 14.0855 16.765 14.1211 16.6256 14.1211C15.8839 14.052 15.1547 13.8847 14.4571 13.6234C13.6348 13.3456 12.8655 12.9304 12.182 12.3956C11.0526 11.4495 10.4948 10.3666 10.4948 9.14972Z" fill="white"/>
<path d="M52.1523 25.8197V27.1213H47.3067C46.7662 27.128 46.2259 27.0932 45.6906 27.0174L42.0674 27.1213V8.87109H45.718V25.5517C46.226 25.7405 46.7648 25.8332 47.3067 25.8251L52.1523 25.8197Z" fill="white"/>
<path d="M63.9876 27.1213L62.0051 19.7381C61.5176 19.5762 61.0066 19.4967 60.4929 19.5029H59.3198C58.7971 19.4955 58.2769 19.5749 57.7803 19.7381L55.7731 27.1213H54.2363L59.112 8.87109H62.8145L67.7148 27.1213H63.9876ZM61.5867 18.0974L60.1593 12.7569H59.689L58.2287 18.1001C58.588 18.1776 58.9551 18.2134 59.3225 18.2068H60.4957C60.8632 18.2136 61.2302 18.1778 61.5895 18.1001L61.5867 18.0974Z" fill="white"/>
<path d="M80.7396 11.099C82.5626 12.603 83.4741 14.8417 83.4741 17.815C83.4741 20.3526 82.992 22.3078 82.0276 23.6806C81.1556 24.9829 79.8692 25.9523 78.377 26.4315C76.7397 26.9147 75.0387 27.147 73.3318 27.1206C73.0884 27.1206 72.7411 27.1042 72.2872 27.0686L70.332 27.1206V8.87038L72.2462 8.92234C72.629 8.88953 72.8997 8.87038 73.0666 8.87038C76.3662 8.85398 78.9239 9.59686 80.7396 11.099ZM78.0953 23.8364C79.2256 22.6551 79.7898 20.7865 79.788 18.2307C79.83 16.7977 79.5408 15.3744 78.943 14.0714C78.4866 13.0788 77.796 12.2118 76.9305 11.545C76.0651 10.8781 75.0506 10.4314 73.9744 10.2431V25.7916C75.5475 25.6906 77.0221 24.9909 78.0953 23.8364Z" fill="white"/>
<path d="M95.8233 8.87109H97.3109L92.2247 18.6744V27.1213H88.5768V18.6744L83.9883 8.87109H87.8166L91.5192 16.6946H91.7789L95.8233 8.87109Z" fill="white"/>
<path d="M117.828 25.8197V27.1213H112.98C112.439 27.128 111.899 27.0932 111.363 27.0174L107.74 27.1213V8.87109H111.388V25.5517C111.897 25.7402 112.437 25.8329 112.98 25.8251L117.828 25.8197Z" fill="white"/>
<path d="M130.527 25.8197V27.1213H125.676C125.135 27.128 124.595 27.0932 124.06 27.0174L120.437 27.1213V8.87109H124.087V25.5517C124.595 25.7405 125.134 25.8332 125.676 25.8251L130.527 25.8197Z" fill="white"/>
<path d="M142.364 27.1213L140.382 19.7381C139.894 19.5762 139.383 19.4967 138.87 19.5029H137.697C137.174 19.4955 136.654 19.5749 136.157 19.7381L134.15 27.1213H132.624L137.5 8.87109H141.202L146.102 27.1213H142.364ZM139.963 18.0974L138.531 12.7569H138.06L136.6 18.1001C136.959 18.1776 137.326 18.2134 137.694 18.2068H138.867C139.235 18.2138 139.603 18.178 139.963 18.1001V18.0974Z" fill="white"/>
<path d="M164.995 8.87109V27.1213L161.336 27.0174V13.9464L156.884 27.1213H155.296L150.6 14.0858H150.264V27.1213H148.697V8.87109H152.504L156.936 21.1518H157.275L161.336 8.87109H164.995Z" fill="white"/>
<path d="M177.353 27.1213L175.37 19.7381C174.883 19.5759 174.372 19.4964 173.858 19.5029H172.685C172.163 19.4952 171.644 19.5747 171.148 19.7381L169.138 27.1213H167.602L172.477 8.87109H176.18L181.08 27.1213H177.353ZM174.955 18.0974L173.519 12.7541H173.051L171.591 18.1001C171.95 18.1778 172.318 18.2136 172.685 18.2068H173.858C174.227 18.2136 174.595 18.1778 174.955 18.1001V18.0974Z" fill="white"/>
<path d="M190.415 25.8191C191.664 25.8191 192.658 25.6186 193.399 25.2175C194.139 24.8165 194.509 24.3042 194.509 23.6807C194.509 23.019 194.099 22.36 193.281 21.6982C192.911 21.4101 192.524 21.1443 192.122 20.9025C191.679 20.629 191.178 20.3556 190.623 20.0301C190.5 19.9618 189.972 19.6473 189.032 19.0922C187.73 18.3265 186.957 17.8571 186.713 17.6839C185.866 17.1362 185.153 16.4055 184.626 15.5455C184.162 14.8077 183.909 13.9563 183.896 13.0845C183.894 12.3252 184.134 11.585 184.58 10.9707C185.115 10.273 185.839 9.74339 186.666 9.44481C187.783 9.03119 188.968 8.83623 190.158 8.87056C191.426 8.86309 192.689 9.04747 193.902 9.41746C194.991 9.73484 196.006 10.2677 196.885 10.9843L195.66 13.2786C195.114 12.3319 194.338 11.5382 193.404 10.9707C192.414 10.416 191.292 10.141 190.158 10.1749C188.926 10.1749 187.97 10.3745 187.29 10.7738C186.614 11.1758 186.275 11.6598 186.275 12.234C186.275 12.8083 186.614 13.4071 187.29 13.9294C187.661 14.2169 188.049 14.4826 188.452 14.7252C188.895 14.9986 189.395 15.2721 189.95 15.5975L191.542 16.5354C192.253 16.9547 192.782 17.2765 193.131 17.5007C193.366 17.6608 193.61 17.8087 193.861 17.9437C194.766 18.453 195.536 19.1735 196.103 20.0438C196.601 20.7894 196.872 21.6631 196.885 22.5596C196.886 23.3732 196.631 24.1665 196.155 24.8265C195.597 25.578 194.839 26.1571 193.967 26.4973C192.837 26.9433 191.627 27.1554 190.412 27.1208C189.133 27.1419 187.857 26.9667 186.631 26.6012C185.556 26.2643 184.556 25.724 183.686 25.0097L184.911 22.7155C186.148 24.7864 187.983 25.821 190.415 25.8191Z" fill="white"/>
</svg>
